<svg xmlns="http://www.w3.org/2000/svg" width="23.97" height="23.969" viewBox="0 0 23.97 23.969">
  
  <path id="Forma_1" data-name="Forma 1" class="cls-1" d="M1409.61,83.491a0.883,0.883,0,0,0-1.25,0,6.071,6.071,0,0,0-1.73,4.9,0.887,0.887,0,0,0,.88.8c0.03,0,.06,0,0.09,0a0.881,0.881,0,0,0,.79-0.969,4.307,4.307,0,0,1,1.22-3.476A0.878,0.878,0,0,0,1409.61,83.491Zm3.51-5.452a10.121,10.121,0,1,0,10.12,10.121A10.132,10.132,0,0,0,1413.12,78.038Zm0,18.472a8.35,8.35,0,1,1,8.35-8.351A8.363,8.363,0,0,1,1413.12,96.51Zm13.58,3.977-6.43-6.433a0.888,0.888,0,1,0-1.26,1.252l6.44,6.432a0.884,0.884,0,0,0,1.25,0A0.9,0.9,0,0,0,1426.7,100.487Z" transform="translate(-1403 -78.031)"/>
</svg>
